<svg width="48" height="26" viewBox="0 0 48 26" fill="none" xmlns="http://www.w3.org/2000/svg">
<path d="M37.9962 3.61295V18.4889C37.9962 23.7525 34.1542 25.9776 30.2544 25.9776C28.8814 26.0874 27.5065 25.791 26.2806 25.1211C25.0548 24.4511 24.0253 23.4333 23.305 22.1795L27.0582 19.861C27.3609 20.5146 27.8433 21.0538 28.4407 21.4065C29.0381 21.7591 29.7221 21.9085 30.4011 21.8345C30.835 21.8987 31.277 21.8579 31.6942 21.715C32.1113 21.5721 32.4931 21.3307 32.8113 21.009C33.1294 20.6871 33.3757 20.2931 33.5321 19.8556C33.6884 19.4184 33.7506 18.9491 33.7143 18.4826V17.0504C33.1992 17.7238 32.5436 18.2588 31.8 18.6125C31.0563 18.9662 30.2455 19.1288 29.4324 19.0871C27.4978 19.0219 25.6628 18.155 24.3159 16.6696C22.969 15.1844 22.2158 13.1974 22.2158 11.1293C22.2158 9.0612 22.969 7.07415 24.3159 5.58892C25.6628 4.10354 27.4978 3.23662 29.4324 3.17142C30.2455 3.1298 31.0563 3.29232 31.8 3.64602C32.5436 3.99973 33.1992 4.53479 33.7143 5.20816V3.60978L37.9962 3.61295ZM33.7158 11.1317C33.7454 10.3742 33.5621 9.62459 33.1896 8.97938C32.8171 8.33402 32.2723 7.8227 31.6255 7.51109C30.9787 7.19933 30.2595 7.10169 29.5602 7.23051C28.861 7.35932 28.2139 7.70875 27.702 8.234C27.1903 8.75909 26.8373 9.43579 26.6885 10.1771C26.5398 10.9183 26.602 11.6903 26.8674 12.3934C27.1327 13.0966 27.5889 13.6989 28.1772 14.1227C28.7655 14.5465 29.4591 14.7725 30.1685 14.7715C30.6308 14.806 31.0945 14.7367 31.5301 14.568C31.9657 14.3993 32.3634 14.1349 32.6975 13.7921C33.0317 13.4491 33.295 13.0353 33.4704 12.577C33.6457 12.1189 33.7294 11.6265 33.7158 11.1317Z" fill="#CD5FF8"/>
<path d="M44.7361 6.97589C46.5386 6.97589 48.0004 5.41423 48.0004 3.48795C48.0004 1.5616 46.5386 0 44.7361 0C42.9335 0 41.4717 1.5616 41.4717 3.48795C41.4717 5.41423 42.9335 6.97589 44.7361 6.97589Z" fill="#CD5FF8"/>
<path d="M15.8772 18.9906V6.3141L11.2941 18.9906H7.81592L3.36356 6.3141V18.9906H0V0H4.55699L9.60731 14.4665L14.7698 0H19.2545V18.9906H15.8772Z" fill="#CD5FF8"/>
</svg>
